<svg xmlns="http://www.w3.org/2000/svg" width="28" height="28" viewBox="0 0 28 28">
  <path d="M12.722,20.089L20.11,15.675L15.693,8.301L17.54,0.923C10.648,3.901 6.814,6.199 0.94,10.876L8.299,12.718L12.722,20.089Z" fill="#FDB5FF"/>
  <path d="M20.109,15.675L27.491,17.523C24.514,10.631 22.215,6.797 17.539,0.924L15.691,8.302L20.109,15.675Z" fill="#9A44FD"/>
  <path d="M8.3,12.718L0.922,10.871C3.899,17.763 6.2,21.59 10.874,27.471L12.722,20.089L8.3,12.718Z" fill="#9A44FD"/>
  <path d="M27.473,17.518L20.11,15.675L12.74,20.094L10.892,27.476C17.767,24.486 21.6,22.195 27.473,17.518Z" fill="#7B33BB"/>
  <path d="M15.332,23.391C20.407,22.762 24.012,18.138 23.383,13.062C22.754,7.987 18.129,4.382 13.054,5.011C7.978,5.64 4.374,10.265 5.003,15.34C5.632,20.416 10.256,24.02 15.332,23.391Z" fill="#DF5CFA"/>
</svg>
